<?xml version="1.0" encoding="UTF-8"?>
<svg id="_レイヤー_1" data-name="レイヤー 1" xmlns="http://www.w3.org/2000/svg" viewBox="0 0 526.8 535.38">
  <defs>
    <style>
      .cls-1 {
        fill: #000;
        stroke-width: 0px;
      }

      .cls-2 {
        fill: none;
        stroke: #fff;
        stroke-miterlimit: 10;
        stroke-width: 2px;
      }
    </style>
  </defs>
  <g id="_レイヤー_1-2" data-name="レイヤー 1">
    <g>
      <path class="cls-1" d="M37.07,511.05c2.11-.91,4.22-1.82,6.54-2.82-3.39-4.37-6.25-8.07-9.12-11.77,16.96,2.81,34.05,7.77,36.2-16.12,6.18-1.52,11.6-2.85,18.21-4.47-2.99-3.98-4.65-6.19-8.01-10.65,17.06-1.36,32.31-2.59,45.56-3.65-7.43-29.24-15.94-55.84-20.64-83.1-4.95-28.68-6.19-58-9.27-87.02-.47-4.44-1.78-8.89-3.35-13.08-16.5-43.96-29.13-88.96-36.68-135.35-1.84-11.3.01-21.71,7.44-33.96,5.09,6.37,9.52,10.91,12.78,16.18,17.01,27.52,33.71,55.23,49.14,80.6,11.51-5.16,20.28-9.99,29.63-13.01,7.46-2.41,11.02-5.37,9.75-13.78-5.08-33.66-8.72-67.57-14.87-101.03-4.39-23.91-4.01-28.46,17.04-40.69,16.25-9.44,32.12-20.14,49.46-26.96,18.02-7.08,37.04-1.46,55.41,4.22-14.03.81-28.05,1.62-46.3,2.67,6.24,7.16,10.49,12.03,14.86,17.05-12.03,10.16,5.83,6.85,8.46,11.07-6.79,16.73-13.62,33.56-20.39,50.24,1.85,2.74,4.65,6.86,7.44,10.99-1.08.86-2.16,1.71-3.24,2.57-2.35-1.72-4.71-3.43-6.58-4.8-13.86,16.99,11.95,21.38,10.9,34.58,1.97-.87,3.93-1.74,7.13-3.15-.4,5.02-.81,10.17-1.23,15.37,11.34,3.54,26.24-7.76,38.03,7.21-7.32,3.53-13.45,6.63-19.7,9.47-8.63,3.92-13.84,8.64-5.32,16.04-4.37,3.35-8.43,6.47-12.48,9.58.7,1.26,1.4,2.51,2.11,3.77,13.48-3.26,26.92-6.74,40.46-9.71,10.18-2.24,20.85-2.8,30.62-6.1,5.7-1.92,10.07-7.77,14.81-11.66.55.99,2.88,5.22,5.86,10.63,5.18-10.09,2.2-24.38-4.65-25.72-9.04-1.77-18.42-1.77-27.93-4.37,4.68-1.44,9.3-3.68,14.07-4.08,4.79-.4,9.73,1.05,15.76,1.84-2.99-6.63-5.09-11.28-8.64-19.16,6.22,2.4,8.81,3.4,12.81,4.94v-24.47c.72-.53,1.44-1.06,2.15-1.59,1.36,3.05,3.46,5.98,3.96,9.16,1.98,12.58,4.52,25.21,4.86,37.88.39,14.69,10.32,23.38,18.25,33.36,1.36,1.71,6.09.9,9.26.99,32.84.95,65.71,1.19,98.51,2.91,40.08,2.1,46.4,23.52,49.91,56.35,2.21,20.63-1.08,41.87-2.06,62.82-.68,14.61-8.42,23.73-21.6,30-17.88,8.5-36.45,12.13-56.01,12.09-3.88-.01-7.76.51-15.39,1.05,10.56,8.54,18.56,14.56,26.04,21.17,11.75,10.38,27.91,16.66,33.18,33.16,2.11,6.61,4.53,14.91,2.34,20.77-8.08,21.64-24.63,36.01-45.25,45.76-3.71,1.76-14.77,10.23-19.43,15.79-.43.51-1.28.76-1.99.93-22.32,5.39-44.64,10.76-66.97,16.08-.76.18-1.92-.52-2.41-.16-10.66,7.85-20.6,8.65-30.32-2.45.82,2.24,1.65,4.49,2.79,7.58-23.43,2.15-46.15,4.23-69.89,6.41v-16.42c-3.02,4.42-5,7.3-8.21,11.99-2.15-3.82-3.85-6.83-6.24-11.08-2.33,2.56-5.18,5.42-7.71,8.56-2.07,2.56-3.74,5.45-5.58,8.19-2.22-2.42-4.43-4.83-4.32-4.71-10.65,2.39-20.27,4.55-32.57,7.32,2.04-9.55,3.33-15.61,4.66-21.87-3.04-3.83-6.69-8.42-10.9-13.72-3.38,23-17.77,36.22-37.76,42.75-13.82-14.94-22.51,1.35-33.55,4.92,1.2-1.64,2.4-3.27,3.65-4.96-.89-.52-1.62-1.33-2.22-1.24-12.76,1.77-25.57,5.3-38.22,4.8-6.66-.27-12.69-8.38-19.67-11.38-4.13-1.78-10.25-12.82-14.51,2.75-3.48-5.95-6.02-10.29-8.56-14.63l-.3.33ZM278.5,206.87c17.45-6.09,34.9-12.18,52.35-18.27-3.02-2.18-6.58-3.57-9.44-2.69-12.9,3.95-25.71,8.26-38.26,13.17-2.22.87-3.09,5.21-4.67,7.83-3.81-.81-7.89-2.91-11.38-2.19-11.67,2.4-23.13,5.82-34.67,8.85,8.69,1.58,16.98.7,25.12-.97,7.08-1.45,13.98-3.79,20.95-5.73ZM203.46,282.07c-.33.02-.71-.06-1.14-.23-3.01,2.41-6.03,4.83-8.61,6.89,5.69,8.42,10.26,15.19,13.96,20.66,2.01,6.92,3.05,12.9,5.47,18.25,3.99,8.82,8.44,24.15,13.46,24.47,13.32.84,7.78,8.13,7.99,13.71,3.58-1.1,6.87-2.11,9.49-2.91,2.98,6.56,5.72,12.57,8.45,18.59-3.62.01-7.82-1.06-10.66.44-1.74.92-2.89,7.05-1.6,8.58,1.81,2.16,6.06,2.53,9.36,3.12,5.7,1.01,11.47,1.6,18.28,2.51,3.04-3.35,7.69-7.36,10.88-12.31,3.29-5.12,3.27-9.9-5.33-8.17,5.75.34,11.51.69,19.26,1.15-7.42,8.51-12.36,14.17-17.3,19.83.96,1.07,1.92,2.14,2.88,3.2,7.91-6.67,15.82-13.35,23.43-19.77,5,8.67,12.27,10.06,23.33,2.19,7.86-5.59,15.29-11.78,24.38-18.85-.62,8.23-1.1,14.6-1.58,20.97,1.03.23,2.06.46,3.09.69,2.49-3.02,4.99-6.04,8.63-10.45,3.14,4.14,5.68,7.49,7.88,10.39,1.1-1.59,2.28-3.28,4.16-5.98.79,3.94,1.25,6.26,1.92,9.6,1.99-2.33,3.43-4.01,5.37-6.27,11.78,11.23,23.38,22.29,33.96,32.38,5.23-4.99,8.36-7.98,10.85-10.35,4.7,8.88,8.65,16.33,13,24.56q-12.92-1.39-16.81,10.19c5.15,1.71,10.42,4.81,15.52,4.54,2.42-.12,4.5-6.68,7.07-10.87,5.6,10.54,5.88.62,7.98-2.12,8.58,9.09,11.82,1.28,16.76-5.54-5.05-4.15-9.62-8.18-14.48-11.83-19.61-14.78-39.28-29.34-53.73-49.83-5.36-7.6-12.77-13.76-20.5-21.89,4.66-10.41,16.94-15.46,29.68-20.22,6.36-2.38,13.05-4.93,18.31-9.05,16.75-13.12,16.44-13.25,36.39-3.49,1.6.78,5.99-2.34,7.93-4.63,1.59-1.87,1.45-5.2,2.1-7.99,12.46,4.74,22.96-2.44,22.57-15.28-.18-5.99-4.74-13.04-2.77-17.67,4.46-10.44-1.75-13.28-8.45-16.81-9.01-4.75-17.32-10.42-17.13-21.84.13-8.15-3.94-9.7-10.62-9.67-38.93.13-77.86-.02-116.78.4-6.73.07-13.43,2.41-20.14,3.69,20.02,5.48,27.82,12.85,25.15,26.93-4.32,22.81-14.21,43.45-27.44,62.37-1.35,1.93-6.93,2.84-9.41,1.72-22.34-10.14-46.36-18.33-56.87-45.35-10.29,6.6-19.57,12.56-30.27,19.43-3.87-.47-10.6-1.28-17.32-2.08ZM274.64,502.54c-4.26,2.61-7.88,4.83-11.5,7.05.61,1.23,1.22,2.46,1.83,3.69,8.64-1.36,17.28-2.72,26.15-4.11-.25-5.12-.45-9.15-.71-14.38,5.78-.39,11.22-.52,16.59-1.17,8.77-1.07,19.33.16,25.83-4.34,11.47-7.94,22.1-8.12,31.88-4.61,15.27-13.79,33.48-5.13,50.48-9.16-10.28-6.06-19.87-9.7-26.78-16.21-16.84-15.85-41.22-22.75-52.77-45.05-1.69-3.27-8.46-6.04-12.48-5.58-13.97,1.6-27.23,15.55-30.61,29.55-1.88,7.81-4.69,15.4-7.33,23.88,2.17,1.83,5.41,4.55,8.14,6.85-6.59,3.85-15.61,6.05-17.98,11.27-3.04,6.7-.74,15.82-.74,22.32ZM258.79,431.75c-4.83,5.37-8.59,9.55-12.35,13.73-3.49-5.2-7.23-10.25-10.39-15.64-1.85-3.15-2.15-7.34-4.31-10.16-3.59-4.67-8.12-8.62-12.25-12.88-3.17,5.35-7.56,10.35-9.27,16.14-3.79,12.86-6.23,26.13-9.42,40.08,12.22-6.5,23.64,8.23,37.64-2.78,8.01-6.31,24.72-1.56,40.51-1.85-8.59-11.34-14.59-19.27-20.16-26.64ZM167.04,411.65c-1.57-.12-3.13-.24-4.7-.36-2.99,12.86-5.99,25.71-9.33,40.07-3.54,2.56-8.99,6.5-16.27,11.77h46c-5.63-18.48-10.66-34.98-15.7-51.48ZM214.25,339.93c-4.16,2.84-8.81,4.42-9.04,6.5-.52,4.55-.03,10.21,2.43,13.78,1.73,2.51,7.38,2.33,11.28,3.36.46-3.72,1.91-7.67,1.14-11.12-.96-4.33-3.74-8.26-5.81-12.52ZM240.45,178.24c-1.17-.61-2.35-1.21-3.52-1.82-3.5,3.92-7,7.83-10.51,11.75,4.71,1.36,9.42,2.72,15.78,4.56-.82-6.85-1.28-10.67-1.75-14.49Z"/>
      <path class="cls-1" d="M37.4,510.7c-10.85-4.75-15.17,6.78-23.1,9.41-3.9,1.29-7.32,4.04-11.32,6.33-5.15-10.47-4.22-15.76,7.49-16.31,3.49-.16,7.02-3.42,10.2-5.72,6.87-4.96,14.08-2.13,16.38,6.65.02-.01.35-.36.35-.36Z"/>
      <path class="cls-1" d="M203.46,282.07c-.06.54-.11,1.09-.17,1.63-.33-.62-.66-1.23-.98-1.86.45.17.83.25,1.15.23Z"/>
    </g>
    <path class="cls-2" d="M316.1,309.92l-3,1c-2.15.36-5.98-.19-8-1l-9-4-12-6c-.73-.37-7.32-4.55-8-5l-7.15-6.1c-1.89-1.26-3.61-2.76-5.1-4.47l-3.62-4.13c-.75-.86-1.43-1.79-2.01-2.77l-4.05-6.8c-1.37-2.47-2.37-5.13-2.97-7.9l-1.38-6.45c-.48-2.24-.56-4.54-.22-6.81l.81-5.52c1.1-2.64,2.98-4.88,5.4-6.42l2.5-1.59c3.13-1.99,6.76-3.05,10.47-3.05h7.91c1.57,0,3.12.44,4.45,1.28l6.96,2.72,6,5,2.45-6.54c.36-.97.88-1.87,1.53-2.68l3.61-4.44c.92-1.53,2.25-2.77,3.85-3.56l5.56-2.78,4.8-1.6c2.74-.91,5.69-1.03,8.49-.33l3.71.93,4.99,2.14c1.33.57,2.54,1.39,3.56,2.41l3.33,3.33c1.4,1.4,2.48,3.08,3.18,4.94l1.95,5.19v8.72l-3,11.28-4,10-4,10-5,10-4,7-3,6-2,4c-.87,1.07-2.79,3.37-4.01,4Z"/>
  </g>
</svg>